<svg width="658" height="1024" viewBox="0 0 658 1024" fill="none" xmlns="http://www.w3.org/2000/svg">
<g clip-path="url(#clip0_2017_131)">
<rect width="658" height="1024" fill="black"/>
<path d="M644.437 157.446C651.248 175.076 661.344 191.134 667.37 208.99C672.07 222.916 675.173 237.022 678.156 251.338C680.509 262.632 681.221 274.632 681.221 286.193" stroke="#FF4185" stroke-width="22" stroke-linecap="round" stroke-linejoin="round"/>
<path d="M595.76 208.672C595.76 228.359 594.891 248.174 597.804 267.709C599.628 279.94 601.891 291.401 601.891 303.813C601.891 305.145 602.548 323.843 605.978 316.982" stroke="#FF4185" stroke-width="22" stroke-linecap="round" stroke-linejoin="round"/>
<path d="M644.807 488.645C662.798 506.283 682.302 522.256 700.211 539.961C706.06 545.745 711.728 553.695 718.376 558.127" stroke="#FF4185" stroke-width="22" stroke-linecap="round" stroke-linejoin="round"/>
<path d="M575.324 954.584C589.809 969.508 611.347 986.791 617.786 1007.72C618.753 1010.86 618.188 1010.86 620.283 1007.72" stroke="#FF4185" stroke-width="22" stroke-linecap="round" stroke-linejoin="round"/>
<path d="M655.024 995.456C668.549 1008.59 684.688 1018.99 697.94 1032.24" stroke="#FF4185" stroke-width="22" stroke-linecap="round" stroke-linejoin="round"/>
<path d="M68.5129 934.148C61.7794 922.284 51.8137 901.451 35.5883 901.451C23.9297 901.451 12.9721 905.894 2.20961 910.079C-10.1845 914.899 -22.3919 920.774 -23.3353 935.397C-24.4784 953.115 -19.5621 966.273 -8.00836 979.788C0.828115 990.126 33.7136 1007.98 45.5792 991.369C51.0037 983.775 55.877 976.841 58.4085 967.981C59.184 965.267 60.7021 961.191 62.3821 958.671" stroke="#FF4185" stroke-width="22" stroke-linecap="round" stroke-linejoin="round"/>
<path d="M283.09 276.111C299.761 268.966 317.016 263.44 334.18 257.719" stroke="#FF4185" stroke-width="22" stroke-linecap="round" stroke-linejoin="round"/>
<path d="M470.898 713.057C483.292 715.993 520.459 729.881 511.812 704.515C505.62 686.353 491.071 669.635 470.785 668.884C452.272 668.198 425.985 677.099 413.798 691.027C388.349 720.112 424.809 737.883 449.542 745.654C479.008 754.911 519.847 765.385 547.443 745.878C578.436 723.969 571.9 682.973 547.105 658.768C516.777 629.161 474.323 635.165 435.379 633.703C427.574 633.409 409.259 635.773 404.132 628.083" stroke="#FF4185" stroke-width="22" stroke-linecap="round" stroke-linejoin="round"/>
<path d="M1.51276 535.016C31.376 542.821 62.749 546.823 92.1076 556.259C101.036 559.129 90.9762 563.151 86.9372 565.364C61.7493 579.165 34.1194 587.197 7.13279 596.611C-4.73157 600.75 -16.6497 604.863 -28.2734 609.65C-29.1449 610.008 -35.7679 611.512 -31.533 612.01C-10.3018 614.508 10.9382 613.621 32.3105 614.37C37.37 614.548 45.8229 614.191 51.0814 615.944C51.4266 616.059 36.4217 619.069 36.2445 619.091C23.2797 620.75 10.2635 622.027 -2.75846 623.138C-6.58313 623.464 -21.2042 622.387 -25.0138 625.61C-25.1193 625.7 -6.47764 631.159 -6.13047 631.231C11.0598 634.747 29.5931 635.159 46.2482 640.897C64.4292 647.161 7.86099 643.665 -11.1885 646.292C-26.0958 648.348 18.2785 652.716 32.5353 657.532C52.7179 664.351 28.667 670.125 19.3845 673.606C12.1995 676.3 -21.6907 684.889 -0.285645 694.962C8.00196 698.862 17.1831 701.342 26.0161 703.616C26.2278 703.671 47.018 707.633 43.101 709.461C38.9483 711.399 4.46009 720.377 7.80719 722.05C15.6064 725.95 29.1433 722.558 35.4577 729.244C37.0427 730.922 29.8377 730.982 29.8377 733.29" stroke="#FF4185" stroke-width="22" stroke-linecap="round" stroke-linejoin="round"/>
<path d="M307.017 338.764C289.235 344.268 271.244 349.491 264.53 368.887C256.877 390.996 272.184 402.669 293.754 399.123C306.215 397.074 331.082 386.445 323.203 369.561C318.406 359.283 296.731 356.913 287.235 359.445C281.201 361.054 275.603 367.796 279.816 373.158C287.404 382.815 306.213 373.431 313.312 367.538C314.223 366.782 319.442 361.166 315.335 360.345C308.204 358.918 299.318 368.851 295.215 373.158C292.332 376.185 283.215 393.429 290.832 383.274" stroke="#FF4185" stroke-width="22" stroke-linecap="round" stroke-linejoin="round"/>
<path d="M-0.510319 93.9549C16.5098 90.74 50.1302 94.7979 46.2483 69.4516C42.7581 46.6623 25.5285 28.5101 1.62529 29.5494C-21.5858 30.5586 -39.0444 53.8441 -45.2457 74.3972C-53.8985 103.075 -32.8973 117.843 -6.57995 121.043C18.6341 124.11 73.0113 129.663 84.0149 96.6525C93.3078 68.7738 65.951 47.8091 46.8103 33.0338C36.5444 25.1093 24.9931 17.6108 16.125 8.08088C10.9135 2.4805 9.14613 -1.88697 1.51289 -3.15918" stroke="#FF4185" stroke-width="22" stroke-linecap="round" stroke-linejoin="round"/>
<path d="M491.089 952.779C453.841 961.013 416.41 968.023 379.003 975.459C362.94 978.653 346.389 981.308 330.685 986.087C320.109 989.306 335.627 988.357 336.82 988.388C350.542 988.749 481.008 993.432 481.008 1005.04C481.008 1008.69 463.471 1011.28 462.163 1011.51C427.702 1017.54 389.597 1016.81 356.98 1030.79C350.122 1033.73 357.568 1035.53 360.925 1036.49C378.907 1041.63 397.55 1042.56 416.146 1043.06C443.813 1043.81 471.521 1043.5 499.196 1043.5C502.457 1043.5 518.38 1041.24 521.767 1043.5C524.214 1045.13 516.048 1044.88 513.221 1045.69C501.378 1049.07 489.617 1051.92 477.502 1054.24C472.1 1055.27 455.964 1055.62 451.316 1060.26C446.882 1064.7 463.021 1064.97 469.175 1066.18C486.059 1069.49 502.961 1071.03 520.123 1071.99C520.29 1072 547.786 1072.49 543.68 1074.62C537.484 1077.82 505.286 1086.69 515.412 1098.5C523.018 1107.38 559.325 1104.54 548.72 1109.46C535.723 1115.48 516.05 1113.29 504.675 1122.39C502.209 1124.36 530.931 1129.55 533.819 1129.84C543.72 1130.83 551.077 1132.58 560.115 1136.19" stroke="#FF3C3C" stroke-width="22" stroke-linecap="round" stroke-linejoin="round"/>
<path d="M506.866 441.985C503.477 436.807 457.914 372.627 452.083 375.808C446.364 378.927 446.355 406.224 446.167 410.869C445.666 423.22 446.022 435.569 446.715 447.902C447.064 454.124 450.144 466.986 447.372 472.992C445.614 476.801 441.802 466.715 439.155 463.46C430.363 452.652 420.979 442.335 411.873 431.796C405.033 423.88 398.317 415.949 392.041 407.582C391.511 406.874 385.051 396.098 384.591 402.542C383.286 420.81 385.201 439.834 387.001 457.982C389.195 480.086 389.614 506.339 397.191 527.556C399.38 533.686 396.119 514.555 394.89 508.163C393.143 499.077 389.156 477.016 379.77 471.897C373.094 468.255 361.078 533.913 360.925 538.622C360.213 560.458 354.801 507.774 345.257 512.546C338.518 515.915 340.967 532.47 345.147 536.65" stroke="#FF3C3C" stroke-width="22" stroke-linecap="round" stroke-linejoin="round"/>
<path d="M147.929 690.48C152.029 673.325 155.868 656.082 160.2 638.984C160.348 638.4 161.483 629.476 164.144 633.944C170.809 645.131 175.763 657.749 181.456 669.443C188.686 684.294 196.819 699.943 206.656 713.269C210.307 718.216 210.519 699.8 210.819 698.368C214.059 682.933 217.724 666.765 222.433 651.693C224.89 643.833 222.734 668.404 225.282 676.236C226.574 680.209 231.757 691.384 237.115 691.575C242.286 691.76 247.72 678.842 249.606 675.579C254.501 667.106 257.513 657.792 261.877 649.064C262.244 648.329 265.084 658.664 265.602 660.02C267.532 665.076 273.204 687.461 281.599 686.316C287.548 685.505 294.581 671.883 297.376 667.69C303.227 658.914 305.613 643.238 312.715 636.135C315.241 633.609 310.518 642.945 309.757 646.434C308.54 652.01 307.579 657.609 308.552 663.307C311.335 679.608 316.279 673.484 327.397 666.813" stroke="#FF3C3C" stroke-width="22" stroke-linecap="round" stroke-linejoin="round"/>
<circle cx="164.437" cy="897.446" r="31" fill="#FF3C3C"/>
<ellipse cx="511.437" cy="220.446" rx="31" ry="29" fill="#FF3C3C"/>
<path d="M407.664 133.017C419.414 128.87 434.826 125.826 445.213 118.516C449.709 115.353 441.201 112.712 439.565 112.106C413.001 102.251 386.477 92.7029 360.498 81.2724C350.591 76.9131 337.94 72.9829 329.207 66.3137C325.321 63.3461 338.67 63.4733 343.555 63.2609C358.19 62.6246 372.873 63.0037 387.515 62.9556C391.558 62.9424 413.37 65.5011 416.593 60.6661C422.253 52.1764 370.951 29.7707 366.833 28.0012C359.515 24.8574 357.944 24.4674 351.111 22.1245C349.313 21.5083 345.103 21.2825 345.997 19.606C347.802 16.2228 359.742 15.2157 363.169 14.2636C379.674 9.67901 368.766 3.6522 357.751 -0.160854C349.334 -3.07417 340.925 -4.85027 332.183 -6.34276C324.411 -7.66975 343.007 -5.74082 343.097 -5.7322" stroke="#27E123" stroke-width="22" stroke-linecap="round" stroke-linejoin="round"/>
<path d="M323.864 135.765C336.454 146.851 346.413 159.687 358.208 171.482" stroke="#27E123" stroke-width="22" stroke-linecap="round" stroke-linejoin="round"/>
<path d="M167.256 87.6832C185.172 59.5584 203.712 32.0373 223.58 5.25781" stroke="#27E123" stroke-width="22" stroke-linecap="round" stroke-linejoin="round"/>
<path d="M685.163 326.717C677.842 344.496 674.515 363.068 670.051 381.667C669.752 382.915 668.678 394.782 668.678 389.91" stroke="#27E123" stroke-width="22" stroke-linecap="round" stroke-linejoin="round"/>
<path d="M531.302 319.848C532.626 339.268 538.004 358.211 542.215 377.164C542.353 377.785 543.666 388.566 543.666 384.414" stroke="#27E123" stroke-width="22" stroke-linecap="round" stroke-linejoin="round"/>
<path d="M248.814 546.247C238.64 518.956 232.057 491.144 226.132 462.664C225.912 461.608 224.067 443.487 221.562 441.893C219.096 440.324 211.64 495.46 211.094 499.222C211.065 499.422 207.206 513.953 206.856 513.429C201.697 505.689 201.528 491.515 199.462 482.771C195.995 468.098 191.048 453.598 184.922 439.816C179.654 427.963 173.455 450.633 171.878 454.522C167.286 465.848 164.507 476.359 163.237 488.421C162.551 494.937 162.244 494.622 161.991 488.171C161.444 474.236 157.9 460.133 153.766 446.878C150.932 437.793 146.541 426.731 140.057 440.564C133.045 455.523 128.762 471.808 124.686 487.756C122.725 495.431 121.742 482.505 121.363 480.86C118.33 467.718 115.152 454.265 107.903 442.724C107.002 441.289 100.758 431.551 100.758 432.588" stroke="#27E123" stroke-width="22" stroke-linecap="round" stroke-linejoin="round"/>
<path d="M136.65 280.045C146.105 293.467 156.128 306.407 165.896 319.593C167.924 322.33 169.997 324.751 171.047 327.901" stroke="#27E123" stroke-width="22" stroke-linecap="round" stroke-linejoin="round"/>
<path d="M473.142 851.332C453.47 844.246 434.83 836.351 417.559 824.413C415.884 823.256 408.731 815.958 408.835 822.087C409.199 843.549 422.603 857.265 436.585 871.605C439.779 874.881 433.636 871.568 432.68 871.19C420.643 866.431 409.102 860.932 397.868 854.49C386.66 848.062 375.782 840.441 363.886 835.297C357.922 832.718 362.739 839.472 363.969 842.027C365.689 845.598 385.779 872.591 383.245 873.765C376.671 876.811 365.891 872.759 359.649 871.273C344.97 867.778 330.866 862.669 316.445 858.312C297.354 852.543 326.944 875.314 331.234 878.086C332.612 878.976 350.479 890.216 343.032 890.216" stroke="#27E123" stroke-width="22" stroke-linecap="round" stroke-linejoin="round"/>
<path d="M614.046 558.688C588.858 560.977 563.464 560.984 538.318 563.699C526.665 564.957 539.565 566.785 543.793 567.69C562.342 571.658 581.525 571.548 600.125 575.207C602.791 575.731 592.205 580.217 591.68 580.404C580.016 584.553 566.608 586.696 556.136 593.582C549.968 597.637 572.117 598.698 573.398 598.779C582.11 599.331 590.891 599.422 599.568 600.449C601.849 600.72 605.763 600.815 602.167 603.234C595.743 607.555 588.571 610.751 581.75 614.37C580.651 614.953 572.964 617.774 576.46 619.938C594.288 630.974 617.593 633.706 637.061 640.866C639.501 641.763 660.602 648.119 655.854 653.998C650.556 660.558 640.889 661.082 633.396 662.721C631.279 663.184 615.39 667.17 623.094 672.141C625.443 673.656 646.432 677.187 646.295 677.802C645.496 681.401 629.266 684.689 625.925 686.061C622.304 687.549 617.905 689.584 619.985 694.043C622.108 698.591 625.262 703.343 629.08 706.525" stroke="#27E123" stroke-width="22" stroke-linecap="round" stroke-linejoin="round"/>
<circle cx="600.937" cy="822.946" r="32.5" fill="#27E123"/>
<circle cx="257.937" cy="814.946" r="24.5" fill="#27E123"/>
<path d="M609.13 67.8885C605.916 71.6873 578.76 108.903 569.59 103.663C566.146 101.695 595.839 47.383 598.371 40.4523C605.583 20.7142 577.407 41.8966 571.338 44.8905C565.606 47.7186 533.347 60.0772 533.816 59.55C541.225 51.2148 555.084 42.7131 558.965 31.8449C559.937 29.1239 525.274 37.9004 520.635 38.8384C505.811 41.8367 510.918 34.1985 516.063 23.91C523.294 9.44705 524.936 0.366556 519.559 -14.4199" stroke="#D8E123" stroke-width="22" stroke-linecap="round" stroke-linejoin="round"/>
<path d="M122.542 140.514C157.122 140.514 191.829 139.783 226.369 141.724C243.532 142.688 231.347 145.14 223.68 147.238C214.971 149.621 158.016 163.475 162.352 175.481C165.658 184.636 179.16 185.148 186.829 186.375C193.014 187.364 198.305 188.09 204.447 188.661C206.651 188.866 211.62 187.333 211.037 189.468C209.05 196.755 171.245 206.399 188.712 216.77C198.375 222.507 210.301 223.716 220.99 226.588C230.258 229.078 214.502 231.218 212.517 231.698C195.231 235.88 174.006 237.023 158.048 245.147C151.718 248.37 171.194 250.978 178.222 252.006C179.019 252.123 203.783 253.91 200.009 259.134C198.98 260.559 196.504 262.588 198.933 263.976C201.72 265.568 209.525 266.565 207.272 268.818" stroke="#D8E123" stroke-width="22" stroke-linecap="round" stroke-linejoin="round"/>
<path d="M432.409 217.98C432.221 230.952 429.988 243.806 429.988 256.714" stroke="#D8E123" stroke-width="22" stroke-linecap="round" stroke-linejoin="round"/>
<path d="M346.053 1096.96C320.796 1092.19 295.003 1093.32 269.413 1092.85C261.165 1092.7 252.947 1092.33 244.724 1091.67C241.614 1091.43 234.097 1091.92 231.277 1089.62C226.595 1085.79 250.178 1071.4 251.558 1070.66C270.279 1060.63 291.179 1054.69 309.423 1043.84C310.325 1043.3 312.922 1042.63 312.032 1042.07C310.228 1040.95 302.967 1041.38 301.377 1041.27C281.142 1039.85 260.861 1040.15 240.609 1039.03C230.646 1038.47 220.687 1037.83 210.776 1036.64C210.171 1036.56 195.514 1035.65 198.652 1032.96C209.283 1023.87 225.984 1021.52 238.809 1017.2C238.93 1017.16 243.71 1015.83 243.475 1014.45C243.159 1012.59 235.474 1011.44 234.988 1011.32C219.417 1007.63 203.255 1007.42 187.703 1003.87C185.557 1003.37 185.625 1002.77 187.556 1001.81C193.75 998.711 200.541 996.716 207.029 994.349C210.504 993.082 232.92 987.379 228.191 980.866C225.018 976.495 216.423 974.238 211.364 973.04C209.883 972.689 209.59 972.649 211.291 971.901C215.368 970.107 219.549 968.628 223.856 967.492C226.115 966.897 229.635 966.629 231.461 964.921C234.836 961.763 219.884 955.073 219.741 955.001C210.963 950.592 201.801 947.257 192.259 944.934C190.39 944.479 184.058 943.186 181.458 943.097C175.511 942.893 183.232 943.515 180.723 944.199" stroke="#D8E123" stroke-width="22" stroke-linecap="round" stroke-linejoin="round"/>
<path d="M158.238 811.273C147.31 797.439 137.923 783.092 128.588 768.177C127.988 767.218 122.064 756.34 119.808 758.22C114.836 762.363 113.057 773.146 111.651 778.942C108.959 790.039 108.386 803.672 102.393 813.661C99.1646 819.041 96.413 810.644 95.0447 808.187C89.4032 798.058 82.8411 789.676 74.0294 782.102C71.7742 780.163 69.1626 776.981 66.9018 780.044C61.9618 786.737 57.0683 793.43 51.6179 799.737C47.5906 804.397 41.5685 810.652 34.8277 810.869C29.6246 811.037 27.0243 804.384 25.6059 800.472C23.7899 795.462 21.5796 778.895 13.1878 784.49C5.00639 789.944 -1.11314 804.581 -12.6772 800.692C-18.3222 798.794 -20.3164 791.436 -24.2871 787.466" stroke="#D8E123" stroke-width="22" stroke-linecap="round" stroke-linejoin="round"/>
<path d="M309.856 759.559C322.92 755.652 335.235 750.63 347.142 743.933C350.376 742.113 355.309 739.983 357.425 736.809" stroke="#D8E123" stroke-width="22" stroke-linecap="round" stroke-linejoin="round"/>
<circle cx="38.9365" cy="211.946" r="28.5" fill="#D8E123"/>
<circle cx="569.937" cy="442.946" r="25.5" fill="#D8E123"/>
<path d="M470.898 713.057C483.292 715.993 520.459 729.881 511.812 704.515C505.62 686.353 491.071 669.635 470.785 668.884C452.272 668.198 425.985 677.099 413.798 691.027C388.349 720.112 424.809 737.883 449.542 745.654C479.008 754.911 519.847 765.385 547.443 745.878C578.436 723.969 571.9 682.973 547.105 658.768C516.777 629.161 474.323 635.165 435.379 633.703C427.574 633.409 409.259 635.773 404.132 628.083" stroke="#4176FF" stroke-width="22" stroke-linecap="round" stroke-linejoin="round"/>
<path d="M1.51276 535.016C31.376 542.821 62.749 546.823 92.1076 556.259C101.036 559.129 90.9762 563.151 86.9372 565.364C61.7493 579.165 34.1194 587.197 7.13279 596.611C-4.73157 600.75 -16.6497 604.863 -28.2734 609.65C-29.1449 610.008 -35.7679 611.512 -31.533 612.01C-10.3018 614.508 10.9382 613.621 32.3105 614.37C37.37 614.548 45.8229 614.191 51.0814 615.944C51.4266 616.059 36.4217 619.069 36.2445 619.091C23.2797 620.75 10.2635 622.027 -2.75846 623.138C-6.58313 623.464 -21.2042 622.387 -25.0138 625.61C-25.1193 625.7 -6.47764 631.159 -6.13047 631.231C11.0598 634.747 29.5931 635.159 46.2482 640.897C64.4292 647.161 7.86099 643.665 -11.1885 646.292C-26.0958 648.348 18.2785 652.716 32.5353 657.532C52.7179 664.351 28.667 670.125 19.3845 673.606C12.1995 676.3 -21.6907 684.889 -0.285645 694.962C8.00196 698.862 17.1831 701.342 26.0161 703.616C26.2278 703.671 47.018 707.633 43.101 709.461C38.9483 711.399 4.46009 720.377 7.80719 722.05C15.6064 725.95 29.1433 722.558 35.4577 729.244C37.0427 730.922 29.8377 730.982 29.8377 733.29" stroke="#4176FF" stroke-width="22" stroke-linecap="round" stroke-linejoin="round"/>
<path d="M147.929 690.48C152.029 673.325 155.868 656.082 160.2 638.984C160.348 638.4 161.483 629.476 164.144 633.944C170.809 645.131 175.763 657.749 181.456 669.443C188.686 684.294 196.819 699.943 206.656 713.269C210.307 718.216 210.519 699.8 210.819 698.368C214.059 682.933 217.724 666.765 222.433 651.693C224.89 643.833 222.734 668.404 225.282 676.236C226.574 680.209 231.757 691.384 237.115 691.575C242.286 691.76 247.72 678.842 249.606 675.579C254.501 667.106 257.513 657.792 261.877 649.064C262.244 648.329 265.084 658.664 265.602 660.02C267.532 665.076 273.204 687.461 281.599 686.316C287.548 685.505 294.581 671.883 297.376 667.69C303.227 658.914 305.613 643.238 312.715 636.135C315.241 633.609 310.518 642.945 309.757 646.434C308.54 652.01 307.579 657.609 308.552 663.307C311.335 679.608 316.279 673.484 327.397 666.813" stroke="#7FCFD9" stroke-width="22" stroke-linecap="round" stroke-linejoin="round"/>
<path d="M614.046 558.688C588.858 560.977 563.464 560.984 538.318 563.699C526.665 564.957 539.565 566.785 543.793 567.69C562.342 571.658 581.525 571.548 600.125 575.207C602.791 575.731 592.205 580.217 591.68 580.404C580.016 584.553 566.608 586.696 556.136 593.582C549.968 597.637 572.117 598.698 573.398 598.779C582.11 599.331 590.891 599.422 599.568 600.449C601.849 600.72 605.763 600.815 602.167 603.234C595.743 607.555 588.571 610.751 581.75 614.37C580.651 614.953 572.964 617.774 576.46 619.938C594.288 630.974 617.593 633.706 637.061 640.866C639.501 641.763 660.602 648.119 655.854 653.998C650.556 660.558 640.889 661.082 633.396 662.721C631.279 663.184 615.39 667.17 623.094 672.141C625.443 673.656 646.432 677.187 646.295 677.802C645.496 681.401 629.266 684.689 625.925 686.061C622.304 687.549 617.905 689.584 619.985 694.043C622.108 698.591 625.262 703.343 629.08 706.525" stroke="#864DCF" stroke-width="22" stroke-linecap="round" stroke-linejoin="round"/>
<circle cx="600.937" cy="822.946" r="32.5" fill="#864DCF"/>
<circle cx="257.937" cy="814.946" r="24.5" fill="#864DCF"/>
<path d="M158.238 811.273C147.31 797.439 137.923 783.092 128.588 768.177C127.988 767.218 122.064 756.34 119.808 758.22C114.836 762.363 113.057 773.146 111.651 778.942C108.959 790.039 108.386 803.672 102.393 813.661C99.1646 819.041 96.413 810.644 95.0447 808.187C89.4032 798.058 82.8411 789.676 74.0294 782.102C71.7742 780.163 69.1626 776.981 66.9018 780.044C61.9618 786.737 57.0683 793.43 51.6179 799.737C47.5906 804.397 41.5685 810.652 34.8277 810.869C29.6246 811.037 27.0243 804.384 25.6059 800.472C23.7899 795.462 21.5796 778.895 13.1878 784.49C5.00639 789.944 -1.11314 804.581 -12.6772 800.692C-18.3222 798.794 -20.3164 791.436 -24.2871 787.466" stroke="#27E123" stroke-width="22" stroke-linecap="round" stroke-linejoin="round"/>
<path d="M309.856 759.559C322.92 755.652 335.235 750.63 347.142 743.933C350.376 742.113 355.309 739.983 357.425 736.809" stroke="#27E123" stroke-width="22" stroke-linecap="round" stroke-linejoin="round"/>
<path d="M575.324 954.584C589.809 969.508 611.347 986.791 617.786 1007.72C618.753 1010.86 618.188 1010.86 620.283 1007.72" stroke="#D34998" stroke-width="22" stroke-linecap="round" stroke-linejoin="round"/>
<path d="M655.024 995.456C668.549 1008.59 684.688 1018.99 697.94 1032.24" stroke="#D34998" stroke-width="22" stroke-linecap="round" stroke-linejoin="round"/>
<path d="M68.5129 934.148C61.7794 922.284 51.8137 901.451 35.5883 901.451C23.9297 901.451 12.9721 905.894 2.20961 910.079C-10.1845 914.899 -22.3919 920.774 -23.3353 935.397C-24.4784 953.115 -19.5621 966.273 -8.00836 979.788C0.828115 990.126 33.7136 1007.98 45.5792 991.369C51.0037 983.775 55.877 976.841 58.4085 967.981C59.184 965.267 60.7021 961.191 62.3821 958.671" stroke="#D34998" stroke-width="22" stroke-linecap="round" stroke-linejoin="round"/>
<path d="M491.089 952.779C453.841 961.013 416.41 968.023 379.003 975.459C362.94 978.653 346.389 981.308 330.685 986.087C320.109 989.306 335.627 988.357 336.82 988.388C350.542 988.749 481.008 993.432 481.008 1005.04C481.008 1008.69 463.471 1011.28 462.163 1011.51C427.702 1017.54 389.597 1016.81 356.98 1030.79C350.122 1033.73 357.568 1035.53 360.925 1036.49C378.907 1041.63 397.55 1042.56 416.146 1043.06C443.813 1043.81 471.521 1043.5 499.196 1043.5C502.457 1043.5 518.38 1041.24 521.767 1043.5C524.214 1045.13 516.048 1044.88 513.221 1045.69C501.378 1049.07 489.617 1051.92 477.502 1054.24C472.1 1055.27 455.964 1055.62 451.316 1060.26C446.882 1064.7 463.021 1064.97 469.175 1066.18C486.059 1069.49 502.961 1071.03 520.123 1071.99C520.29 1072 547.786 1072.49 543.68 1074.62C537.484 1077.82 505.286 1086.69 515.412 1098.5C523.018 1107.38 559.325 1104.54 548.72 1109.46C535.723 1115.48 516.05 1113.29 504.675 1122.39C502.209 1124.36 530.931 1129.55 533.819 1129.84C543.72 1130.83 551.077 1132.58 560.115 1136.19" stroke="#7FCFD9" stroke-width="22" stroke-linecap="round" stroke-linejoin="round"/>
<circle cx="164.437" cy="897.446" r="31" fill="#7FCFD9"/>
<path d="M473.142 851.332C453.47 844.246 434.83 836.351 417.559 824.413C415.884 823.256 408.731 815.958 408.835 822.087C409.199 843.549 422.603 857.265 436.585 871.605C439.779 874.881 433.636 871.568 432.68 871.19C420.643 866.431 409.102 860.932 397.868 854.49C386.66 848.062 375.782 840.441 363.886 835.297C357.922 832.718 362.739 839.472 363.969 842.027C365.689 845.598 385.779 872.591 383.245 873.765C376.671 876.811 365.891 872.759 359.649 871.273C344.97 867.778 330.866 862.669 316.445 858.312C297.354 852.543 326.944 875.314 331.234 878.086C332.612 878.976 350.479 890.216 343.032 890.216" stroke="#374892" stroke-width="22" stroke-linecap="round" stroke-linejoin="round"/>
<path d="M346.053 1096.96C320.796 1092.19 295.003 1093.32 269.413 1092.85C261.165 1092.7 252.947 1092.33 244.724 1091.67C241.614 1091.43 234.097 1091.92 231.277 1089.62C226.595 1085.79 250.178 1071.4 251.558 1070.66C270.279 1060.63 291.179 1054.69 309.423 1043.84C310.325 1043.3 312.922 1042.63 312.032 1042.07C310.228 1040.95 302.967 1041.38 301.377 1041.27C281.142 1039.85 260.861 1040.15 240.609 1039.03C230.646 1038.47 220.687 1037.83 210.776 1036.64C210.171 1036.56 195.514 1035.65 198.652 1032.96C209.283 1023.87 225.984 1021.52 238.809 1017.2C238.93 1017.16 243.71 1015.83 243.475 1014.45C243.159 1012.59 235.474 1011.44 234.988 1011.32C219.417 1007.63 203.255 1007.42 187.703 1003.87C185.557 1003.37 185.625 1002.77 187.556 1001.81C193.75 998.711 200.541 996.716 207.029 994.349C210.504 993.082 232.92 987.379 228.191 980.866C225.018 976.495 216.423 974.238 211.364 973.04C209.883 972.689 209.59 972.649 211.291 971.901C215.368 970.107 219.549 968.628 223.856 967.492C226.115 966.897 229.635 966.629 231.461 964.921C234.836 961.763 219.884 955.073 219.741 955.001C210.963 950.592 201.801 947.257 192.259 944.934C190.39 944.479 184.058 943.186 181.458 943.097C175.511 942.893 183.232 943.515 180.723 944.199" stroke="#D8E123" stroke-width="22" stroke-linecap="round" stroke-linejoin="round"/>
</g>
<defs>
<clipPath id="clip0_2017_131">
<rect width="658" height="1024" fill="white"/>
</clipPath>
</defs>
</svg>
